<?xml version="1.0" encoding="UTF-8" standalone="no"?>
<svg
   version="1.0"
   width="256.76999mm"
   height="22.610001mm"
   id="svg29"
   sodipodi:docname="image3.emf"
   xmlns:inkscape="http://www.inkscape.org/namespaces/inkscape"
   xmlns:sodipodi="http://sodipodi.sourceforge.net/DTD/sodipodi-0.dtd"
   xmlns="http://www.w3.org/2000/svg"
   xmlns:svg="http://www.w3.org/2000/svg">
  <sodipodi:namedview
     id="namedview29"
     pagecolor="#505050"
     bordercolor="#eeeeee"
     borderopacity="1"
     inkscape:showpageshadow="0"
     inkscape:pageopacity="0"
     inkscape:pagecheckerboard="0"
     inkscape:deskcolor="#d1d1d1"
     inkscape:document-units="mm" />
  <defs
     id="defs2">
    <clipPath
       clipPathUnits="userSpaceOnUse"
       id="clipEmfPath1">
      <path
         d="  M 0,0   L 0,0   L 0,87.190028   L 972.19866,87.190028   L 972.19866,0 "
         id="path1" />
    </clipPath>
    <clipPath
       clipPathUnits="userSpaceOnUse"
       id="clipEmfPath2">
      <path
         d="  M 0,0.30031009   L 0,0.30031009   L 0,87.089925   L 971.69861,87.089925   L 971.69861,0.30031009 "
         id="path2" />
    </clipPath>
    <pattern
       id="EMFhbasepattern"
       patternUnits="userSpaceOnUse"
       width="6"
       height="6"
       x="0"
       y="0" />
  </defs>
  <path
     style="fill:#fefefe;fill-rule:nonzero;fill-opacity:1;stroke:none;"
     clip-path="url(#clipEmfPath2)"
     d="  M 284.72889,25.226047   L 284.72889,25.226047   L 284.72889,61.063051   L 290.62949,61.063051   L 290.62949,63.365428   L 266.82708,63.365428   L 266.82708,61.063051   L 272.72768,61.063051   L 272.72768,27.728631   L 268.12721,27.728631   L 268.12721,25.226047   L 284.72889,25.226047   z "
     id="path3" />
  <path
     style="fill:#fefefe;fill-rule:nonzero;fill-opacity:1;stroke:none;"
     clip-path="url(#clipEmfPath2)"
     d="  M 49.204993,2.1021706   L 49.204993,2.1021706   L 47.00477,2.1021706   C 46.90476,3.9040311 46.004668,4.704858 44.104476,4.704858   C 40.50411,4.704858 35.103562,0.30031009 28.802923,0.30031009   C 10.801096,0.30031009 0,18.018605 0,33.63473   C 0,49.250854 10.301045,64.866979 27.602801,64.866979   C 38.103867,64.866979 42.104273,59.86181 44.904557,59.86181   C 46.704739,59.86181 47.10478,61.463464 47.10478,63.365428   L 49.405014,63.365428   L 49.405014,41.943309   L 47.10478,41.943309   L 46.504719,44.94641   C 45.304597,52.053748 39.804039,62.464498 28.502892,62.464498   C 18.501878,62.464498 14.701492,53.855609 14.701492,32.533593   C 14.701492,10.210543 19.90202,2.7027908 28.802923,2.7027908   C 38.803938,2.7027908 45.604628,13.814264 47.00477,22.823567   L 49.204993,22.823567   L 49.204993,2.1021706   z "
     id="path4" />
  <path
     style="fill:#fefefe;fill-rule:nonzero;fill-opacity:1;stroke:none;"
     clip-path="url(#clipEmfPath1)"
     d="  M 95.709712,55.957779   L 95.709712,55.957779   C 95.709712,58.260157 94.20956,60.862844 93.209459,60.862844   C 91.709306,60.862844 91.309266,59.161087 91.309266,56.458296   L 91.309266,36.63783   C 91.309266,26.727598 82.108332,24.325117 73.207429,24.325117   C 64.506546,24.325117 58.205907,28.529458 58.205907,33.434523   C 58.205907,36.437624 59.906079,39.040311 63.806475,39.040311   C 67.10681,39.040311 69.107013,36.838037 69.107013,33.834936   C 69.107013,29.430388 64.506546,29.330285 64.506546,29.230182   C 64.506546,27.328218 69.607064,26.727598 72.607368,26.727598   C 79.008018,26.727598 79.908109,29.029975 79.908109,34.23535   L 79.908109,41.542895   L 71.407246,42.243619   C 63.606455,42.844239 55.005582,44.94641 55.005582,53.855609   C 55.005582,61.463464 61.806272,64.466565 68.406942,64.466565   C 71.807287,64.466565 77.807896,63.165221 80.008119,58.96088   C 81.608281,62.664705 84.708596,64.466565 88.608992,64.466565   C 94.30957,64.466565 97.909936,61.063051 97.909936,55.957779   L 95.709712,55.957779   L 95.709712,55.957779   z  M 79.908109,53.154885   L 79.908109,53.154885   C 79.708089,57.659536 77.107825,61.463464 73.107419,61.463464   C 67.20682,61.463464 66.90679,56.458296 66.90679,52.754472   C 66.90679,48.149717 67.50685,45.046513 73.107419,44.445893   L 79.908109,43.745169   L 79.908109,53.154885   z "
     id="path5" />
  <path
     style="fill:#fefefe;fill-rule:nonzero;fill-opacity:1;stroke:none;"
     clip-path="url(#clipEmfPath1)"
     d="  M 899.39127,25.125944   L 899.39127,25.125944   L 899.39127,60.962947   L 905.39188,60.962947   L 905.39188,63.265325   L 881.48945,63.265325   L 881.48945,60.962947   L 887.49006,60.962947   L 887.49006,27.628528   L 881.48945,27.628528   L 881.48945,25.125944   L 899.39127,25.125944   z "
     id="path6" />
  <path
     style="fill:#fefefe;fill-rule:nonzero;fill-opacity:1;stroke:none;"
     clip-path="url(#clipEmfPath1)"
     d="  M 380.03857,43.544962   L 380.03857,43.544962   L 394.44003,2.6026874   L 414.14203,2.6026874   L 414.04202,5.0051681   L 408.44145,5.0051681   L 408.44145,61.063051   L 414.04202,61.063051   L 414.04202,63.465531   L 390.33961,63.465531   L 390.33961,61.063051   L 396.1402,61.063051   L 396.1402,5.6057883   L 395.94018,5.6057883   L 375.83814,63.465531   L 373.4379,63.465531   L 352.8358,4.6047546   L 352.63578,4.6047546   L 352.63578,53.655402   C 352.63578,60.662637 354.43597,61.063051 359.13644,61.063051   L 359.43647,61.063051   L 359.43647,63.465531   L 344.43495,63.465531   L 344.43495,61.063051   C 349.43546,61.063051 350.33555,58.160053 350.33555,54.456229   L 350.33555,5.0051681   L 344.43495,5.0051681   L 344.43495,2.502584   L 366.13715,2.502584   L 380.03857,43.544962   z "
     id="path7" />
  <path
     style="fill:#fefefe;fill-rule:nonzero;fill-opacity:1;stroke:none;"
     clip-path="url(#clipEmfPath1)"
     d="  M 427.94343,42.443825   L 427.94343,42.443825   L 451.74584,42.443825   C 451.64583,33.134213 443.04496,24.12491 433.94404,24.325117   C 423.743,24.325117 414.94211,33.134213 414.94211,44.846306   C 414.94211,56.057883 423.14294,64.466565 434.24407,64.466565   C 444.84514,64.466565 450.14568,57.859743 452.04587,49.350957   L 449.64563,49.350957   C 447.74544,57.359226 443.54501,61.963981 436.84433,61.963981   C 428.74351,61.963981 427.94343,55.657469 427.94343,49.751371   L 427.94343,42.443825   L 427.94343,42.443825   z  M 427.94343,40.141448   L 427.94343,40.141448   L 427.94343,34.335453   C 427.94343,28.529458 430.44368,26.727598 433.34397,26.727598   C 437.5444,26.727598 438.74452,29.530492 438.74452,34.335453   L 438.74452,40.141448   L 427.94343,40.141448   z "
     id="path8" />
  <path
     style="fill:#fefefe;fill-rule:nonzero;fill-opacity:1;stroke:none;"
     clip-path="url(#clipEmfPath1)"
     d="  M 788.17998,42.343722   L 788.17998,42.343722   L 811.9824,42.343722   C 811.88239,33.034109 803.28152,24.024807 794.18059,24.225014   C 783.97956,24.225014 775.17866,33.034109 775.17866,44.646099   C 775.17866,55.957779 783.3795,64.366462 794.48062,64.366462   C 805.0817,64.366462 810.38224,57.75964 812.28243,49.150751   L 809.88218,49.150751   C 807.98199,57.259123 803.78157,61.763774 797.08089,61.763774   C 788.98006,61.763774 788.17998,55.457263 788.17998,49.651268   L 788.17998,42.343722   L 788.17998,42.343722   z  M 788.17998,40.041345   L 788.17998,40.041345   L 788.17998,34.23535   C 788.17998,28.429355 790.68024,26.527391 793.58053,26.527391   C 797.78096,26.527391 799.08109,29.430388 799.08109,34.23535   L 799.08109,40.041345   L 788.17998,40.041345   z "
     id="path9" />
  <path
     style="fill:#fefefe;fill-rule:nonzero;fill-opacity:1;stroke:none;"
     clip-path="url(#clipEmfPath1)"
     d="  M 451.94586,2.7027908   L 451.94586,2.7027908   L 451.94586,4.9050647   L 457.84646,4.9050647   L 457.84646,60.962947   L 451.94586,60.962947   L 451.94586,63.465531   L 475.74828,63.465531   L 475.74828,60.962947   L 469.74767,60.962947   L 469.74767,2.7027908   L 451.94586,2.7027908   z "
     id="path10" />
  <path
     style="fill:#fefefe;fill-rule:nonzero;fill-opacity:1;stroke:none;"
     clip-path="url(#clipEmfPath1)"
     d="  M 477.44845,2.7027908   L 477.44845,2.7027908   L 477.44845,4.9050647   L 483.34905,4.9050647   L 483.34905,60.962947   L 477.44845,60.962947   L 477.44845,63.465531   L 501.25087,63.465531   L 501.25087,60.962947   L 495.35027,60.962947   L 495.35027,2.7027908   L 477.44845,2.7027908   z "
     id="path11" />
  <path
     style="fill:#fefefe;fill-rule:nonzero;fill-opacity:1;stroke:none;"
     clip-path="url(#clipEmfPath1)"
     d="  M 542.15502,44.345789   L 542.15502,44.345789   C 542.15502,32.533593 533.05409,24.325117 521.65294,24.325117   C 510.25178,24.325117 501.05085,32.533593 501.05085,44.345789   C 501.05085,56.258089 510.25178,64.466565 521.65294,64.466565   C 533.05409,64.466565 542.15502,56.258089 542.15502,44.345789   z  M 528.65365,52.954678   L 528.65365,52.954678   C 528.65365,59.461397 526.05338,62.064084 521.65294,62.064084   C 517.25249,62.064084 514.55222,59.461397 514.55222,52.954678   L 514.55222,35.937107   C 514.55222,29.430388 517.25249,26.727598 521.65294,26.727598   C 526.05338,26.727598 528.65365,29.430388 528.65365,35.937107   L 528.65365,52.954678   z "
     id="path12" />
  <path
     style="fill:#fefefe;fill-rule:nonzero;fill-opacity:1;stroke:none;"
     clip-path="url(#clipEmfPath1)"
     d="  M 605.46144,4.6047546   L 605.46144,4.6047546   L 611.46205,4.6047546   L 611.46205,43.044446   C 611.46205,56.458296 620.66298,64.566668 634.76441,64.566668   C 650.66603,64.566668 657.56673,56.258089 657.56673,43.544962   L 657.56673,10.610956   C 657.56673,5.6057883 658.96687,4.6047546 662.06718,4.6047546   L 663.86737,4.6047546   L 663.86737,2.3023773   L 648.66583,2.3023773   L 648.66583,4.6047546   L 649.76594,4.6047546   C 654.16638,4.6047546 654.76644,6.0062017 654.76644,11.01137   L 654.76644,44.345789   C 654.76644,56.157986 647.4657,61.463464 640.06495,61.463464   C 627.46367,61.463464 624.96342,53.054782 624.16334,41.943309   L 624.16334,4.6047546   L 629.86392,4.6047546   L 629.86392,2.3023773   L 605.46144,2.3023773   L 605.46144,4.6047546   z "
     id="path13" />
  <path
     style="fill:#fefefe;fill-rule:nonzero;fill-opacity:1;stroke:none;"
     clip-path="url(#clipEmfPath1)"
     d="  M 755.17663,64.266358   L 755.17663,64.266358   L 757.47687,64.266358   L 770.27817,34.035143   C 772.87843,28.329251 774.27857,27.628528 776.27877,27.528425   L 776.97885,27.528425   L 776.97885,25.125944   L 763.47748,25.125944   L 763.47748,27.528425   L 765.17765,27.528425   C 767.6779,27.528425 768.77801,27.428321 768.77801,29.630595   C 768.77801,31.032042 768.37797,32.433489 767.37787,34.936073   L 761.47727,48.750337   L 752.07632,27.528425   L 756.87681,27.528425   L 756.87681,25.125944   L 735.1746,25.125944   L 735.1746,27.528425   L 739.27502,27.528425   L 755.17663,64.266358   z "
     id="path14" />
  <path
     style="fill:#fefefe;fill-rule:nonzero;fill-opacity:1;stroke:none;"
     clip-path="url(#clipEmfPath1)"
     d="  M 851.48641,64.266358   L 851.48641,64.266358   L 853.48661,64.266358   C 853.88665,62.864911 854.78674,62.164188 856.48691,62.164188   C 858.78715,62.164188 861.48742,64.266358 866.28791,64.266358   C 874.48874,64.266358 880.08931,57.15902 880.08931,50.051681   C 880.08931,39.540828 872.88858,38.740001 863.58763,37.438657   C 858.78715,36.737934 856.08687,36.03721 856.08687,32.233283   C 856.08687,28.229148 859.58723,26.527391 864.28771,26.527391   C 870.68836,26.527391 873.28862,30.831835 875.38883,36.437624   L 877.48905,36.437624   L 877.48905,24.12491   L 875.48884,24.12491   C 875.48884,25.125944 874.58875,26.026874 872.98859,26.026874   C 870.1883,26.026874 867.98808,24.12491 863.98768,24.12491   C 855.28679,24.12491 851.08637,31.432456 851.08637,37.038244   C 851.08637,48.149717 859.58723,49.150751 866.08789,49.951578   C 872.38853,50.652301 874.58875,51.052715 874.58875,55.056849   C 874.58875,59.661604 870.78837,61.763774 866.08789,61.763774   C 859.58723,61.763774 855.08677,56.057883 853.48661,49.751371   L 851.48641,49.751371   L 851.48641,64.266358   z "
     id="path15" />
  <path
     style="fill:#fefefe;fill-rule:nonzero;fill-opacity:1;stroke:none;"
     clip-path="url(#clipEmfPath1)"
     d="  M 909.19226,27.628528   L 909.19226,27.628528   L 909.19226,54.356126   C 909.19226,62.664705 916.29298,64.266358 918.69323,64.266358   C 923.99376,64.266358 927.49412,62.064084 930.19439,57.559433   L 928.2942,56.558399   C 927.2941,58.160053 925.89396,60.262224 923.79374,60.262224   C 921.99356,60.262224 921.09347,58.96088 921.09347,56.157986   L 921.09347,27.628528   L 950.89649,27.628528   L 950.89649,25.125944   L 921.09347,25.125944   L 921.09347,6.6068219   L 919.59332,6.6068219   C 919.59332,15.716228 913.39269,25.125944 904.5918,25.125944   L 904.5918,27.628528   L 909.19226,27.628528   z "
     id="path16" />
  <path
     style="fill:#fefefe;fill-rule:nonzero;fill-opacity:1;stroke:none;"
     clip-path="url(#clipEmfPath1)"
     d="  M 731.97428,25.125944   L 731.97428,25.125944   L 731.97428,60.962947   L 737.97489,60.962947   L 737.97489,63.265325   L 714.17247,63.265325   L 714.17247,60.962947   L 720.07307,60.962947   L 720.07307,27.628528   L 714.17247,27.628528   L 714.17247,25.125944   L 731.97428,25.125944   z "
     id="path17" />
  <path
     style="fill:#fefefe;fill-rule:nonzero;fill-opacity:1;stroke:none;"
     clip-path="url(#clipEmfPath1)"
     d="  M 720.07307,13.213644   L 720.07307,13.213644   C 720.07307,16.517055 722.77335,19.119742 726.07368,19.119742   C 729.37402,19.119742 731.97428,16.517055 731.97428,13.213644   C 731.97428,9.8101295 729.37402,7.2074421 726.07368,7.2074421   C 722.77335,7.2074421 720.07307,9.8101295 720.07307,13.213644   z "
     id="path18" />
  <path
     style="fill:#fefefe;fill-rule:nonzero;fill-opacity:1;stroke:none;"
     clip-path="url(#clipEmfPath1)"
     d="  M 887.49006,13.213644   L 887.49006,13.213644   C 887.49006,16.517055 890.09032,19.119742 893.39066,19.119742   C 896.69099,19.119742 899.39127,16.517055 899.39127,13.213644   C 899.39127,9.8101295 896.69099,7.2074421 893.39066,7.2074421   C 890.09032,7.2074421 887.49006,9.8101295 887.49006,13.213644   z "
     id="path19" />
  <path
     style="fill:#fefefe;fill-rule:nonzero;fill-opacity:1;stroke:none;"
     clip-path="url(#clipEmfPath1)"
     d="  M 199.72027,42.443825   L 199.72027,42.443825   L 223.52268,42.443825   C 223.42267,33.134213 214.8218,24.12491 205.72088,24.325117   C 195.51984,24.325117 186.71895,33.134213 186.71895,44.846306   C 186.71895,56.057883 194.91978,64.466565 206.02091,64.466565   C 216.62198,64.466565 221.92252,57.859743 223.82271,49.350957   L 221.42247,49.350957   C 219.52228,57.359226 215.32185,61.963981 208.62117,61.963981   C 200.52035,61.963981 199.72027,55.657469 199.72027,49.751371   L 199.72027,42.443825   L 199.72027,42.443825   z  M 199.72027,40.141448   L 199.72027,40.141448   L 199.72027,34.335453   C 199.72027,28.529458 202.22052,26.727598 205.12082,26.727598   C 209.32124,26.727598 210.62137,29.530492 210.62137,34.335453   L 210.62137,40.141448   L 199.72027,40.141448   z "
     id="path20" />
  <path
     style="fill:#fefefe;fill-rule:nonzero;fill-opacity:1;stroke:none;"
     clip-path="url(#clipEmfPath1)"
     d="  M 304.03085,42.443825   L 304.03085,42.443825   L 327.93328,42.443825   C 327.83327,33.134213 319.13238,24.12491 310.03146,24.325117   C 299.93044,24.325117 291.02953,33.134213 291.02953,44.846306   C 291.02953,56.057883 299.23037,64.466565 310.33149,64.466565   C 320.93257,64.466565 326.23311,57.859743 328.1333,49.350957   L 325.83306,49.350957   C 323.93287,57.359226 319.63244,61.963981 312.93176,61.963981   C 304.93094,61.963981 304.03085,55.657469 304.03085,49.751371   L 304.03085,42.443825   L 304.03085,42.443825   z  M 304.03085,40.141448   L 304.03085,40.141448   L 304.03085,34.335453   C 304.03085,28.529458 306.53111,26.727598 309.4314,26.727598   C 312.53171,26.727598 314.93196,28.529458 314.93196,34.335453   L 314.93196,40.141448   L 304.03085,40.141448   z "
     id="path21" />
  <path
     style="fill:#fefefe;fill-rule:nonzero;fill-opacity:1;stroke:none;"
     clip-path="url(#clipEmfPath1)"
     d="  M 662.36722,25.226047   L 662.36722,25.226047   L 662.36722,27.528425   L 668.36782,27.528425   L 668.36782,60.962947   L 662.36722,60.962947   L 662.36722,63.265325   L 685.36955,63.265325   L 685.36955,60.962947   L 680.26903,60.962947   L 680.26903,38.139381   C 681.06911,34.936073 685.06952,27.528425 689.77,27.528425   C 692.97032,27.528425 694.57048,28.629562 694.57048,34.435557   L 694.57048,60.962947   L 689.66999,60.962947   L 689.66999,63.265325   L 712.4723,63.265325   L 712.4723,60.962947   L 706.47169,60.962947   L 706.47169,37.638864   C 706.47169,28.229148 702.47129,23.924704 694.27045,23.924704   C 688.46986,23.924704 682.66928,27.228114 680.26903,32.233283   L 680.26903,32.233283   L 680.26903,25.226047   z "
     id="path22" />
  <path
     style="fill:#fefefe;fill-rule:nonzero;fill-opacity:1;stroke:none;"
     clip-path="url(#clipEmfPath1)"
     d="  M 560.05683,25.326151   L 560.05683,25.326151   L 560.05683,32.333386   L 560.05683,32.333386   C 562.35707,27.328218 568.25767,24.024807 574.05825,24.024807   C 582.25909,24.024807 586.25949,28.429355 586.25949,37.738967   L 586.25949,61.063051   L 592.16009,61.063051   L 592.16009,63.465531   L 569.35778,63.465531   L 569.35778,61.063051   L 574.25827,61.063051   L 574.25827,34.53566   C 574.25827,28.729665 572.75812,27.628528 569.5578,27.628528   C 564.85732,27.628528 560.7569,35.036177 560.05683,38.239484   L 560.05683,61.063051   L 565.15735,61.063051   L 565.15735,63.465531   L 542.15502,63.465531   L 542.15502,61.063051   L 548.15563,61.063051   L 548.15563,27.728631   L 542.15502,27.728631   L 542.15502,25.326151   L 560.05683,25.326151   z "
     id="path23" />
  <path
     style="fill:#fefefe;fill-rule:nonzero;fill-opacity:1;stroke:none;"
     clip-path="url(#clipEmfPath1)"
     d="  M 180.61833,61.063051   L 180.61833,61.063051   L 180.61833,37.738967   C 180.61833,28.329251 176.71793,24.024807 168.5171,24.024807   C 162.71651,24.024807 156.81591,27.328218 154.51568,32.333386   L 154.51568,32.333386   L 154.51568,25.326151   L 136.61386,25.326151   L 136.61386,27.728631   L 142.51446,27.728631   L 142.51446,61.063051   L 136.61386,61.063051   L 136.61386,63.365428   L 159.6162,63.365428   L 159.6162,61.063051   L 154.51568,61.063051   L 154.51568,38.239484   C 155.21575,35.036177 159.31617,27.628528 164.01664,27.628528   C 167.11696,27.628528 168.71712,28.729665 168.71712,34.53566   L 168.71712,61.063051   L 163.81662,61.063051   L 163.81662,63.365428   L 186.61894,63.365428   L 186.61894,61.063051   L 180.61833,61.063051   z "
     id="path24" />
  <path
     style="fill:#fefefe;fill-rule:nonzero;fill-opacity:1;stroke:none;"
     clip-path="url(#clipEmfPath1)"
     d="  M 272.82769,13.41385   L 272.82769,13.41385   C 272.82769,16.717261 275.42795,19.319949 278.72828,19.319949   C 282.02862,19.319949 284.72889,16.717261 284.72889,13.41385   C 284.72889,10.11044 282.02862,7.4076488 278.72828,7.4076488   C 275.42795,7.4076488 272.82769,10.11044 272.82769,13.41385   z "
     id="path25" />
  <path
     style="fill:#fefefe;fill-rule:nonzero;fill-opacity:1;stroke:none;"
     clip-path="url(#clipEmfPath1)"
     d="  M 942.0956,77.079589   L 942.0956,77.079589   L 942.0956,77.079589   L 942.0956,80.383   L 942.0956,77.079589   L 942.0956,77.079589   z  M 957.39715,25.125944   L 957.39715,25.125944   L 957.39715,27.628528   C 961.09753,27.628528 962.69769,27.928838 962.69769,29.630595   C 962.69769,31.032042 962.29765,32.433489 961.29755,34.936073   L 955.39695,48.750337   L 945.996,27.528425   L 950.79648,27.528425   L 950.79648,25.125944   L 929.09428,25.125944   L 929.09428,27.528425   L 933.09469,27.528425   L 948.9963,64.066152   L 943.49574,76.979485   L 943.49574,76.979485   C 943.49574,76.979485 943.49574,76.979485 943.49574,76.979485   L 943.49574,76.979485   C 943.39573,77.279795 943.0957,77.379899 942.79567,77.379899   C 942.49564,77.379899 942.29562,77.179692 942.19561,76.979485   C 942.19561,76.879382 942.19561,76.879382 942.0956,76.879382   L 942.0956,76.879382   L 942.0956,76.879382   C 941.39553,74.376798 939.19531,72.574937 936.39502,72.574937   C 933.09469,72.574937 930.49442,75.177625 930.49442,78.481036   C 930.49442,80.883516 931.79456,82.885584 933.69475,83.786514   C 933.69475,83.786514 933.69475,83.786514 933.69475,83.786514   C 933.79476,83.886617 933.79476,83.886617 933.89477,83.886617   C 933.99478,83.986721 934.09479,83.986721 934.29481,84.086824   C 934.89487,84.287031 935.59494,84.487237 936.39502,84.487237   C 941.39553,84.987754 943.99579,81.28393 945.79598,77.480002   C 946.19602,76.579072 946.49605,75.778245 946.89609,74.877315   C 947.59616,73.075454 948.9963,69.97225 950.49645,66.268426   L 950.49645,66.268426   L 951.99661,62.764808   L 951.99661,62.764808   L 964.19784,34.035143   C 966.79811,28.329251 967.79821,27.628528 970.89852,27.628528   L 970.89852,27.628528   L 970.89852,25.125944   L 957.39715,25.125944   z "
     id="path26" />
  <path
     style="fill:#fefefe;fill-rule:nonzero;fill-opacity:1;stroke:none;"
     clip-path="url(#clipEmfPath2)"
     d="  M 127.91298,23.924704   L 127.91298,23.924704   C 122.31241,23.924704 118.11199,27.728631 116.51182,32.033076   L 116.3118,32.033076   L 116.3118,25.426254   L 98.610007,25.426254   L 98.610007,27.828735   L 104.51061,27.828735   L 104.51061,61.163154   L 98.610007,61.163154   L 98.610007,63.565635   L 124.41263,63.565635   L 124.41263,61.163154   L 116.51182,61.163154   L 116.51182,42.543929   C 116.51182,36.938141 117.91197,31.232249 121.61234,28.129045   C 121.81236,27.928838 122.11239,27.928838 122.31241,28.028941   C 122.61244,28.229148 122.71245,28.529458 122.71245,28.829768   L 122.71245,28.829768   C 122.51243,29.430388 122.31241,30.231215 122.2124,31.232249   C 122.11239,34.435557 124.81267,36.838037 128.113,36.838037   C 132.31343,36.838037 134.71367,33.834936 134.71367,30.531525   C 134.71367,26.427288 131.91339,23.924704 127.91298,23.924704   z "
     id="path27" />
  <path
     style="fill:#fefefe;fill-rule:nonzero;fill-opacity:1;stroke:none;"
     clip-path="url(#clipEmfPath2)"
     d="  M 247.92516,36.938141   L 247.92516,36.938141   C 247.92516,47.04858 245.62493,47.34889 242.52461,47.34889   C 239.02426,47.34889 237.22407,46.74827 237.22407,36.737934   C 237.22407,29.730698 238.02415,26.727598 242.52461,26.727598   C 246.52502,26.727598 247.82515,27.027908 247.92516,36.938141   L 247.92516,36.938141   L 247.92516,36.938141   z  M 246.42501,66.568736   L 246.42501,66.568736   C 255.12589,66.568736 257.42612,66.869046 257.42612,72.174524   C 257.42612,78.481036 249.72534,84.287031 240.92445,84.287031   C 233.22367,84.287031 229.42328,79.482069 229.32327,75.377832   C 229.32327,71.573904 231.12345,69.07132 233.5237,66.568736   L 246.42501,66.568736   L 246.42501,66.568736   z  M 257.92617,26.727598   L 257.92617,26.727598   C 258.12619,26.727598 258.32621,26.627494 258.52623,26.727598   C 258.62624,26.827701 258.62624,27.027908 258.52623,27.228114   L 258.52623,27.228114   C 258.02618,28.129045 257.82616,29.230182 258.2262,30.331319   C 258.62624,31.532559 259.62635,32.433489 260.82647,32.733799   C 263.22671,33.33442 265.42693,31.432456 265.42693,29.130078   C 265.42693,27.628528 264.42683,26.427288 263.42673,25.726564   C 262.32662,25.02584 261.02649,24.72553 259.52634,24.72553   C 257.2261,24.72553 254.92587,25.926771 253.2257,27.428321   C 253.2257,27.428321 253.2257,27.428321 253.2257,27.428321   C 252.82566,27.128011 252.42562,26.927804 252.02557,26.627494   C 249.62533,25.226047 246.52502,24.325117 242.4246,24.325117   C 235.12386,24.325117 227.42308,29.029975 227.42308,36.938141   C 227.42308,41.743102 229.92333,45.446926 234.5238,47.448994   L 234.5238,47.6492   C 231.22346,48.149717 225.92293,50.452094 225.92293,57.659536   C 225.92293,61.963981 227.92313,65.267392 231.52349,66.268426   L 231.52349,66.468632   C 228.02314,67.369563 224.12274,70.87318 224.12274,74.977418   C 224.12274,81.384033 231.6235,86.389201 241.22448,86.389201   C 253.2257,86.389201 261.1265,78.180726 261.1265,67.669873   C 261.1265,59.26119 256.92607,55.457263 248.42521,55.657469   L 234.12376,55.657469   C 231.92354,55.657469 230.52339,55.557366 230.52339,53.254989   C 230.52339,51.052715 233.82373,48.750337 237.12406,48.750337   C 237.72412,48.750337 238.62422,49.150751 238.82424,49.250854   C 239.92435,49.551164 241.02446,49.751371 242.4246,49.751371   C 249.82535,49.751371 257.82616,45.54703 257.82616,37.338554   C 257.82616,34.735867 256.72605,31.232249 254.62584,29.130078   C 254.52583,29.029975 254.52583,28.829768 254.62584,28.629562   C 255.52593,28.028941 256.42602,27.428321 256.92607,27.228114   C 257.32611,27.027908 257.62614,26.827701 257.92617,26.727598   L 257.92617,26.727598   z "
     id="path28" />
  <path
     style="fill:#fefefe;fill-rule:nonzero;fill-opacity:1;stroke:none;"
     clip-path="url(#clipEmfPath1)"
     d="  M 842.28547,23.52429   L 842.28547,23.52429   C 836.78491,23.52429 832.48448,27.328218 830.88432,31.732766   L 830.6843,31.732766   L 830.6843,25.125944   L 812.9825,25.125944   L 812.9825,27.528425   L 818.8831,27.528425   L 818.8831,60.762741   L 812.9825,60.762741   L 812.9825,63.165221   L 838.78512,63.165221   L 838.78512,60.762741   L 830.88432,60.762741   L 830.88432,42.143515   C 830.88432,36.63783 832.28446,30.931939 835.98483,27.828735   C 836.18485,27.628528 836.48488,27.628528 836.6849,27.728631   C 836.98494,27.828735 837.08495,28.129045 837.08495,28.429355   L 837.08495,28.429355   C 836.88493,29.130078 836.6849,29.930905 836.6849,30.931939   C 836.48488,34.035143 839.18516,36.537727 842.48549,36.537727   C 846.68592,36.537727 849.08616,33.534626 849.08616,30.231215   C 849.08616,26.026874 846.28588,23.52429 842.28547,23.52429   z "
     id="path29" />
</svg>
